{"title":"Jeune &amp; Jolie (Young &amp; Beautiful) 2013 BDRip 720p GORESE","uid":9702632,"size":8080955533,"categoryP":"video","categoryS":"hd___movies","magnet":"?xt=urn:btih:dc89a9c28331cb13d177ba8e59e8f0c2c2f5305d&amp;dn=Jeune+%26amp%3B+Jolie+%28Young+%26amp%3B+Beautiful%29+2013+BDRip+720p+GORESE&amp;tr=udp%3A%2F%2Ftracker.openbittorrent.com%3A80&amp;tr=udp%3A%2F%2Fopen.demonii.com%3A1337&amp;tr=udp%3A%2F%2Ftracker.coppersurfer.tk%3A6969&amp;tr=udp%3A%2F%2Fexodus.desync.com%3A6969","seeders":10,"leechers":0,"uploader":"ABSTAIN","files":1,"time":1394027751,"description":"C:/GORESEWAGE/Jeune &amp; Jolie (Young &amp; Beautiful) 2013 BDRip 720p GORESEWAGE.mkv\n  General\n    Unique ID : 242048433914047913716515607572881996350 (0xB618D52AF4CB30F7AAD0DCCD5471FA3E)\n    Complete name : C:/GORESEWAGE/Jeune &amp; Jolie (Young &amp; Beautiful) 2013 BDRip 720p GORESEWAGE.mkv\n    Format : Matroska\n    Format version : Version 4 / Version 2\n    File size : 7.53 GiB\n    Duration : 1h 33mn\n    Overall bit rate : 11.5 Mbps\n    Movie name : Jeune &amp; Jolie (Young &amp; Beautiful) 2013 BDRip 720p GORESEWAGE\n    Encoded date : UTC 2014-03-05 12:21:40\n    Writing application : mkvmerge v6.8.0 ('Theme for Great Cities') 64bit built on Mar  2 2014 21:34:26\n    Writing library : libebml v1.3.0 + libmatroska v1.4.1\n    Attachment : Yes\n  Video #1\n    ID : 1\n    Format : AVC\n    Format/Info : Advanced Video Codec\n    Format profile : &lt;a class=&quot;__cf_email__&quot; href=&quot;/cdn-cgi/l/email-protection&quot; data-cfemail=&quot;cd85a4aaa58d81f9e3fc&quot;&gt;[email&amp;#160;protected]&lt;/a&gt;&lt;script cf-hash='f9e31' type=&quot;text/javascript&quot;&gt;\n/* &lt;![CDATA[ */!function(){try{var t=&quot;currentScript&quot;in document?document.currentScript:function(){for(var t=document.getElementsByTagName(&quot;script&quot;),e=t.length;e--;)if(t[e].getAttribute(&quot;cf-hash&quot;))return t[e]}();if(t&amp;&amp;t.previousSibling){var e,r,n,i,c=t.previousSibling,a=c.getAttribute(&quot;data-cfemail&quot;);if(a){for(e=&quot;&quot;,r=parseInt(a.substr(0,2),16),n=2;a.length-n;n+=2)i=parseInt(a.substr(n,2),16)^r,e+=String.fromCharCode(i);e=document.createTextNode(e),c.parentNode.replaceChild(e,c)}}}catch(u){}}();/* ]]&gt; */&lt;/script&gt;\n    Format settings, CABAC : Yes\n    Format settings, ReFrames : 9 frames\n    Codec ID : V_MPEG4/ISO/AVC\n    Duration : 1h 33mn\n    Bit rate : 8 652 Kbps\n    Width : 1 280 pixels\n    Height : 692 pixels\n    Display aspect ratio : 1.85:1\n    Frame rate mode : Constant\n    Frame rate : 23.976 fps\n    Color space : YUV\n    Chroma subsampling : 4:2:0\n    Bit depth : 8 bits\n    Scan type : Progressive\n    Bits/(Pixel*Frame) : 0.407\n    Stream size : 5.64 GiB (75%)\n    Title : Jeune &amp; Jolie (Young &amp; Beautiful) 2013 BDRip 720p GORESEWAGE\n    Writing library : x264 core 140 r2377+40 929f149 tMod [8-bit@all X86]\n    Encoding settings : cabac=1 / ref=9 / deblock=1:-3:-3 / analyse=0x3:0x133 / me=umh / subme=11 / psy=1 / fade_compensate=0.00 / psy_rd=1.10:0.00 / mixed_ref=1 / me_range=32 / chroma_me=1 / trellis=2 / 8x8dct=1 / cqm=0 / deadzone=21,11 / fast_pskip=0 / chroma_qp_offset=-2 / threads=24 / lookahead_threads=5 / sliced_threads=0 / nr=0 / decimate=0 / interlaced=0 / bluray_compat=0 / constrained_intra=0 / fgo=0 / bframes=12 / b_pyramid=2 / b_adapt=2 / b_bias=0 / direct=3 / weightb=1 / open_gop=0 / weightp=2 / keyint=250 / keyint_min=23 / scenecut=40 / intra_refresh=0 / rc_lookahead=60 / rc=crf / mbtree=0 / crf=18.6500 / qcomp=0.70 / qpmin=0:0:0 / qpmax=69:69:69 / qpstep=4 / vbv_maxrate=50000 / vbv_bufsize=62500 / crf_max=0.0 / nal_hrd=none / filler=0 / ip_ratio=1.40 / pb_ratio=1.10 / aq=1:0.60 / aq-sensitivity=10.00 / aq-factor=1.00:1.00:1.00 / aq2=0 / aq3=0\n    Language : French\n    Default : Yes\n    Forced : No\n  Audio #2\n    ID : 2\n    Format : AC-3\n    Format/Info : Audio Coding 3\n    Mode extension : CM (complete main)\n    Format settings, Endianness : Big\n    Codec ID : A_AC3\n    Duration : 1h 33mn\n    Bit rate mode : Constant\n    Bit rate : 384 Kbps\n    Channel count : 6 channels\n    Channel positions : Front: L C R, Side: L R, LFE\n    Sampling rate : 48.0 KHz\n    Bit depth : 16 bits\n    Compression mode : Lossy\n    Stream size : 256 MiB (3%)\n    Title : Dub DVD R5\n    Language : Russian\n    Default : Yes\n    Forced : No\n  Audio #3\n    ID : 3\n    Format : DTS\n    Format/Info : Digital Theater Systems\n    Mode : 16\n    Format settings, Endianness : Big\n    Codec ID : A_DTS\n    Duration : 1h 33mn\n    Bit rate mode : Constant\n    Bit rate : 1 509 Kbps\n    Channel count : 6 channels\n    Channel positions : Front: L C R, Side: L R, LFE\n    Sampling rate : 48.0 KHz\n    Bit depth : 16 bits\n    Compression mode : Lossy\n    Stream size : 1 007 MiB (13%)\n    Title : Original\n    Language : French\n    Default : No\n    Forced : No\n  Audio #4\n    ID : 4\n    Format : DTS\n    Format/Info : Digital Theater Systems\n    Mode : 16\n    Format settings, Endianness : Big\n    Codec ID : A_DTS\n    Duration : 1h 33mn\n    Bit rate mode : Constant\n    Bit rate : 768 Kbps\n    Channel count : 2 channels\n    Channel positions : Front: L R\n    Sampling rate : 48.0 KHz\n    Bit depth : 16 bits\n    Compression mode : Lossy\n    Stream size : 513 MiB (7%)\n    Title : Description\n    Language : French\n    Default : No\n    Forced : No\n  Text #5\n    ID : 5\n    Format : UTF-8\n    Codec ID : S_TEXT/UTF8\n    Codec ID/Info : UTF-8 Plain Text\n    Title : Forced\n    Language : French\n    Default : No\n    Forced : No\n  Text #6\n    ID : 6\n    Format : UTF-8\n    Codec ID : S_TEXT/UTF8\n    Codec ID/Info : UTF-8 Plain Text\n    Title : Full\n    Language : English\n    Default : No\n    Forced : No\n  Menu\n    00:00:00.000 : en:00:00:00.000\n    00:02:22.434 : en:00:02:22.434\n    00:07:35.288 : en:00:07:35.288\n    00:16:08.759 : en:00:16:08.759\n    00:22:17.253 : en:00:22:17.253\n    00:32:00.919 : en:00:32:00.919\n    00:36:23.973 : en:00:36:23.973\n    00:46:36.794 : en:00:46:36.794\n    00:54:12.082 : en:00:54:12.082\n    01:05:16.871 : en:01:05:16.871\n    01:10:03.366 : en:01:10:03.366\n    01:18:27.286 : en:01:18:27.286\n    01:23:39.973 : en:01:23:39.973\n    01:30:24.669 : en:01:30:24.669","torrent":{"xt":"urn:btih:dc89a9c28331cb13d177ba8e59e8f0c2c2f5305d","amp;dn":"Jeune+%26amp%3B+Jolie+%28Young+%26amp%3B+Beautiful%29+2013+BDRip+720p+GORESE","amp;tr":["udp%3A%2F%2Ftracker.openbittorrent.com%3A80","udp%3A%2F%2Fopen.demonii.com%3A1337","udp%3A%2F%2Ftracker.coppersurfer.tk%3A6969","udp%3A%2F%2Fexodus.desync.com%3A6969"],"infoHash":"dc89a9c28331cb13d177ba8e59e8f0c2c2f5305d","infoHashBuffer":{"type":"Buffer","data":[220,137,169,194,131,49,203,19,209,119,186,142,89,232,240,194,194,245,48,93]},"announce":[],"urlList":[]}}